<svg width="315" height="364" viewBox="0 0 315 364" fill="none" xmlns="http://www.w3.org/2000/svg">
<path d="M134.932 364H0.521309V0.363626H134.754C171.804 0.363626 203.705 7.64346 230.457 22.2031C257.328 36.6444 278.043 57.4777 292.602 84.7031C307.162 111.81 314.442 144.244 314.442 182.004C314.442 219.883 307.162 252.435 292.602 279.661C278.161 306.886 257.505 327.778 230.635 342.338C203.765 356.779 171.864 364 134.932 364ZM88.4119 289.071H131.558C151.918 289.071 169.141 285.638 183.227 278.773C197.432 271.789 208.144 260.484 215.365 244.859C222.704 229.116 226.374 208.164 226.374 182.004C226.374 155.844 222.704 135.011 215.365 119.504C208.026 103.879 197.195 92.634 182.872 85.7685C168.668 78.7846 151.149 75.2926 130.315 75.2926H88.4119V289.071Z" fill="#3F72AF"/>
</svg>
